<svg width="396" height="268" viewBox="0 0 396 268" fill="none" xmlns="http://www.w3.org/2000/svg">
<g filter="url(#filter0_d)">
<path d="M352.724 5H43.0351C35.836 5 30 10.8529 30 18.0729V199.671C30 206.891 35.836 212.744 43.0351 212.744H352.724C359.923 212.744 365.759 206.891 365.759 199.671V18.0729C365.759 10.8529 359.923 5 352.724 5Z" fill="#FAFAFA"/>
</g>
<path d="M365.759 18.0729V27.4559H30V18.0729C30 14.6058 31.3733 11.2806 33.8179 8.82897C36.2624 6.37732 39.578 5 43.0351 5H352.724C356.181 5 359.496 6.37732 361.941 8.82897C364.385 11.2806 365.759 14.6058 365.759 18.0729Z" fill="#FFC200"/>
<path d="M319.722 16.2269C319.732 17.1905 319.456 18.1353 318.929 18.9409C318.401 19.7464 317.647 20.3761 316.761 20.7497C315.875 21.1233 314.899 21.2238 313.956 21.0383C313.013 20.8529 312.147 20.3899 311.467 19.7085C310.788 19.0271 310.326 18.1582 310.141 17.2126C309.956 16.267 310.056 15.2875 310.429 14.3993C310.801 13.511 311.429 12.7541 312.233 12.2253C313.036 11.6964 313.978 11.4196 314.939 11.43C316.203 11.4437 317.412 11.9535 318.306 12.8501C319.2 13.7468 319.708 14.9589 319.722 16.2269Z" fill="white"/>
<path d="M334.487 16.2269C334.498 17.186 334.224 18.1266 333.702 18.9298C333.179 19.733 332.43 20.3628 331.551 20.7394C330.671 21.1161 329.7 21.2227 328.76 21.0458C327.82 20.8689 326.954 20.4164 326.27 19.7456C325.587 19.0748 325.117 18.2158 324.92 17.2772C324.723 16.3385 324.808 15.3625 325.165 14.4724C325.521 13.5823 326.132 12.8182 326.922 12.2766C327.711 11.7351 328.643 11.4405 329.599 11.43C330.234 11.423 330.864 11.5416 331.454 11.7789C332.043 12.0162 332.58 12.3676 333.034 12.813C333.488 13.2585 333.85 13.7892 334.099 14.375C334.349 14.9607 334.48 15.59 334.487 16.2269Z" fill="white"/>
<path d="M349.206 16.2269C349.216 17.1905 348.94 18.1353 348.413 18.9409C347.886 19.7464 347.131 20.3761 346.245 20.7497C345.36 21.1233 344.383 21.2238 343.44 21.0383C342.497 20.8529 341.631 20.3899 340.951 19.7085C340.272 19.0271 339.81 18.1582 339.626 17.2126C339.441 16.267 339.541 15.2875 339.913 14.3993C340.286 13.511 340.914 12.7541 341.717 12.2253C342.52 11.6964 343.462 11.4196 344.423 11.43C345.687 11.4437 346.896 11.9535 347.79 12.8501C348.684 13.7468 349.192 14.9589 349.206 16.2269Z" fill="white"/>
<path opacity="0.1" d="M337.686 66.7617V192.531H58.0742V111.372C64.5239 119.385 72.0321 126.482 80.3923 132.468C81.2777 133.086 82.19 133.731 83.129 134.322C94.1566 141.632 108.082 147.517 123.376 146.227C128.42 145.797 132.954 142.761 137.328 138.085C138.079 137.305 138.803 136.472 139.528 135.585C151.983 120.584 163.413 93.5817 181.277 78.9516C190.48 71.427 200.703 74.0338 211.033 81.1015C211.918 81.7196 212.83 82.3646 213.716 83.0365C228.065 93.8666 242.393 112.323 254.118 123.234C255.674 124.712 257.203 126.029 258.652 127.185C262.301 130.06 265.628 131.861 268.499 132.049C297.23 133.941 337.686 66.7617 337.686 66.7617Z" fill="#FFC200"/>
<path d="M337.686 178.333V192.53H336.044C335.588 189.615 335.132 185.458 334.622 180.681C332.422 160.546 328.37 123.114 317.536 115.503C311.767 111.427 306.428 117.5 298.164 127.703C291.054 136.502 283.004 146.489 272.594 147.649C262.269 148.81 258.03 137.393 254.139 122.898C253.576 120.928 253.066 118.931 252.53 116.879C248.424 101.068 243.756 83.1455 232.272 75.3991C229.589 73.5906 226.986 73.0778 224.303 73.8336C220.713 74.8322 217.198 78.0172 213.737 82.5247C206.761 91.5938 200.161 106.061 194.043 119.335C184.384 140.389 175.879 158.635 166.493 158.284C155.117 157.852 145.914 148.54 137.328 137.824C135.369 135.422 133.491 132.966 131.586 130.51C122.598 118.823 114.097 107.762 105.291 108.706C98.2349 109.462 91.0442 117.689 83.29 133.857C83.2647 133.925 83.2284 133.989 83.1827 134.046C71.2536 158.797 61.2939 188.212 59.8021 192.53H58.0742V187.348C61.5623 177.388 70.2501 153.263 80.2581 132.426C80.2923 132.34 80.3373 132.258 80.3923 132.183C88.7636 114.774 96.5446 106.272 104.916 105.386C115.595 104.28 124.631 116.015 134.21 128.458C135.981 130.753 137.752 133.074 139.523 135.314C147.76 145.598 156.453 154.586 166.595 154.937C166.648 154.95 166.703 154.95 166.756 154.937C174.022 154.937 182.661 136.097 191.033 117.905C197.419 104.01 203.939 89.834 211.049 80.5544C214.966 75.426 219.071 71.8092 223.391 70.5946C227.04 69.569 230.635 70.2437 234.123 72.592C246.654 81.0402 251.483 99.6102 255.749 116.015C256.742 119.794 257.681 123.465 258.674 126.812C261.84 137.446 265.516 145.112 272.218 144.302C281.287 143.277 288.88 133.857 295.588 125.57C303.449 115.854 310.855 106.676 319.435 112.696C331.112 121.009 335.11 154.829 337.686 178.333Z" fill="#FFC200"/>
<defs>
<filter id="filter0_d" x="0" y="0" width="395.759" height="267.744" filterUnits="userSpaceOnUse" color-interpolation-filters="sRGB">
<feFlood flood-opacity="0" result="BackgroundImageFix"/>
<feColorMatrix in="SourceAlpha" type="matrix" values="0 0 0 0 0 0 0 0 0 0 0 0 0 0 0 0 0 0 127 0"/>
<feOffset dy="25"/>
<feGaussianBlur stdDeviation="15"/>
<feColorMatrix type="matrix" values="0 0 0 0 0 0 0 0 0 0 0 0 0 0 0 0 0 0 0.07 0"/>
<feBlend mode="normal" in2="BackgroundImageFix" result="effect1_dropShadow"/>
<feBlend mode="normal" in="SourceGraphic" in2="effect1_dropShadow" result="shape"/>
</filter>
</defs>
</svg>
