<svg width="416" height="271" viewBox="0 0 416 271" fill="none" xmlns="http://www.w3.org/2000/svg">
<g clip-path="url(#clip0)" filter="url(#filter0_d)">
<path d="M363.224 5.91602H49.9736C42.6997 5.91602 36.803 11.8204 36.803 19.1037V202.491C36.803 209.775 42.6997 215.679 49.9736 215.679H363.224C370.498 215.679 376.395 209.775 376.395 202.491V19.1037C376.395 11.8204 370.498 5.91602 363.224 5.91602Z" fill="white"/>
<path d="M376.304 19.104V28.5697H36.7124V19.104C36.7123 17.3605 37.0575 15.6343 37.728 14.0252C38.3984 12.4161 39.3809 10.9562 40.6185 9.72977C41.8562 8.50335 43.3244 7.53484 44.9382 6.88026C46.5521 6.22568 48.2796 5.89802 50.0207 5.91625H363.225C364.949 5.92227 366.654 6.26816 368.244 6.93417C369.835 7.60018 371.278 8.57326 372.493 9.79786C373.707 11.0225 374.669 12.4746 375.323 14.0713C375.977 15.6681 376.31 17.3782 376.304 19.104Z" fill="#FFC200"/>
<path d="M329.868 17.2662C329.868 18.558 329.356 19.7969 328.444 20.7104C327.531 21.6238 326.294 22.137 325.004 22.137C323.714 22.137 322.477 21.6238 321.564 20.7104C320.652 19.7969 320.14 18.558 320.14 17.2662C320.14 15.9744 320.652 14.7356 321.564 13.8221C322.477 12.9087 323.714 12.3955 325.004 12.3955C326.294 12.3955 327.531 12.9087 328.444 13.8221C329.356 14.7356 329.868 15.9744 329.868 17.2662Z" fill="white"/>
<path d="M344.784 17.2662C344.784 18.558 344.271 19.7969 343.359 20.7104C342.447 21.6238 341.209 22.137 339.919 22.137C338.629 22.137 337.392 21.6238 336.48 20.7104C335.567 19.7969 335.055 18.558 335.055 17.2662C335.055 15.9744 335.567 14.7356 336.48 13.8221C337.392 12.9087 338.629 12.3955 339.919 12.3955C341.209 12.3955 342.447 12.9087 343.359 13.8221C344.271 14.7356 344.784 15.9744 344.784 17.2662Z" fill="white"/>
<path d="M359.698 17.2662C359.698 18.558 359.185 19.7969 358.273 20.7104C357.361 21.6238 356.124 22.137 354.833 22.137C353.543 22.137 352.306 21.6238 351.394 20.7104C350.481 19.7969 349.969 18.558 349.969 17.2662C349.969 15.9744 350.481 14.7356 351.394 13.8221C352.306 12.9087 353.543 12.3955 354.833 12.3955C356.124 12.3955 357.361 12.9087 358.273 13.8221C359.185 14.7356 359.698 15.9744 359.698 17.2662Z" fill="white"/>
<g filter="url(#filter1_d)">
<path d="M181.898 114.754C181.898 130.77 175.456 146.13 163.99 157.455C152.525 168.78 136.974 175.142 120.759 175.142C119.724 175.142 118.689 175.142 117.655 175.142V114.754H182.086H181.898Z" fill="#FFE9A3"/>
<path d="M118.441 55.5884V175.059C106.695 174.474 95.38 170.441 85.906 163.464C76.4321 156.486 69.2179 146.871 65.162 135.818C62.807 129.275 61.6112 122.37 61.6285 115.416C61.6085 108.949 62.6472 102.523 64.7031 96.3922C68.5039 84.9567 75.6704 74.9397 85.2612 67.6573C94.852 60.3749 106.419 56.1677 118.441 55.5884Z" fill="#FFECAF"/>
<path d="M181.317 115.415H118.492L162.226 71.624C168.247 77.2148 173.05 83.9898 176.334 91.5249C179.619 99.06 181.316 107.193 181.317 115.415Z" fill="#FFDC6C"/>
<path d="M162.226 71.6249L118.492 115.416V55.6802H121.521C136.348 55.6721 150.646 61.1925 161.63 71.1654L162.226 71.6249Z" fill="#FFC200"/>
</g>
<path d="M277.73 61.9761H215.777V73.4637H277.73V61.9761Z" fill="#FFC200"/>
<path d="M352.303 86.6968H215.777V88.9943H352.303V86.6968Z" fill="#FFC200"/>
<path d="M352.303 101.079H215.777V103.377H352.303V101.079Z" fill="#FFC200"/>
<path d="M352.303 115.416H215.777V117.714H352.303V115.416Z" fill="#FFC200"/>
<path d="M299.253 129.798H215.777V132.095H299.253V129.798Z" fill="#FFC200"/>
</g>
<defs>
<filter id="filter0_d" x="-30" y="-4" width="476" height="317" filterUnits="userSpaceOnUse" color-interpolation-filters="sRGB">
<feFlood flood-opacity="0" result="BackgroundImageFix"/>
<feColorMatrix in="SourceAlpha" type="matrix" values="0 0 0 0 0 0 0 0 0 0 0 0 0 0 0 0 0 0 127 0"/>
<feOffset dy="25"/>
<feGaussianBlur stdDeviation="15"/>
<feColorMatrix type="matrix" values="0 0 0 0 0 0 0 0 0 0 0 0 0 0 0 0 0 0 0.07 0"/>
<feBlend mode="normal" in2="BackgroundImageFix" result="effect1_dropShadow"/>
<feBlend mode="normal" in="SourceGraphic" in2="effect1_dropShadow" result="shape"/>
</filter>
<filter id="filter1_d" x="31.6282" y="50.5884" width="180.458" height="179.553" filterUnits="userSpaceOnUse" color-interpolation-filters="sRGB">
<feFlood flood-opacity="0" result="BackgroundImageFix"/>
<feColorMatrix in="SourceAlpha" type="matrix" values="0 0 0 0 0 0 0 0 0 0 0 0 0 0 0 0 0 0 127 0"/>
<feOffset dy="25"/>
<feGaussianBlur stdDeviation="15"/>
<feColorMatrix type="matrix" values="0 0 0 0 0 0 0 0 0 0 0 0 0 0 0 0 0 0 0.07 0"/>
<feBlend mode="normal" in2="BackgroundImageFix" result="effect1_dropShadow"/>
<feBlend mode="normal" in="SourceGraphic" in2="effect1_dropShadow" result="shape"/>
</filter>
<clipPath id="clip0">
<rect width="416" height="257" fill="white" transform="translate(0 1)"/>
</clipPath>
</defs>
</svg>
