<svg width="113" height="112" viewBox="0 0 113 112" fill="none" xmlns="http://www.w3.org/2000/svg">
<path d="M56.4958 15.646C48.4504 15.6386 40.5837 18.0176 33.8906 22.482C27.1976 26.9464 21.979 33.2956 18.8951 40.7264C15.8112 48.1572 15.0005 56.3358 16.5655 64.2274C18.1306 72.1191 22.0011 79.3692 27.6874 85.0608C33.3737 90.7523 40.6203 94.6294 48.5105 96.2017C56.4007 97.774 64.58 96.9707 72.0136 93.8936C79.4472 90.8165 85.8012 85.6038 90.2717 78.9148C94.7423 72.2259 97.1285 64.3613 97.1285 56.316C97.1186 45.5391 92.8357 35.2059 85.2188 27.582C77.6019 19.9581 67.2726 15.6657 56.4958 15.646ZM56.4958 79.3697C51.9256 79.3771 47.4561 78.0281 43.6531 75.4937C39.8501 72.9592 36.8847 69.3533 35.1324 65.1325C33.3801 60.9116 32.9197 56.2657 33.8094 51.783C34.6992 47.3004 36.8992 43.1825 40.1308 39.9509C43.3623 36.7194 47.4802 34.5194 51.9629 33.6296C56.4455 32.7398 61.0914 33.2003 65.3123 34.9526C69.5331 36.7049 73.1391 39.6703 75.6735 43.4733C78.2079 47.2763 79.5569 51.7458 79.5495 56.316C79.5495 62.4302 77.1206 68.294 72.7972 72.6174C68.4738 76.9408 62.61 79.3697 56.4958 79.3697Z" fill="#FFC200"/>
<path d="M102.642 44.3983C100.594 39.445 99.5882 36.9496 97.5398 32.0335L101.823 22.9461L89.7932 10.9164L80.7057 15.2367L68.3409 10.1343L64.989 0.637207H47.9687L44.6168 10.1343L32.2519 15.2367L23.1645 10.9164L11.1348 22.9461L15.4551 32.0335C13.3694 36.9496 12.3639 39.4822 10.3155 44.3983L0.818359 47.7875V64.8078L10.3155 68.1597C12.3639 73.1131 13.3694 75.6084 15.4551 80.5618L11.1348 89.6492L23.1645 101.679L32.2519 97.3214L44.6168 102.387L47.9687 111.846H64.989L68.3409 102.387L80.7057 97.2469L89.7932 101.604L101.823 89.5748L97.5398 80.5618L102.642 68.1597L112.139 64.8078V47.7875L102.642 44.3983ZM56.4974 96.949C48.4505 96.9563 40.5823 94.5764 33.8884 90.1104C27.1946 85.6443 21.976 79.2929 18.8932 71.86C15.8104 64.427 15.0019 56.2465 16.5699 48.3539C18.138 40.4612 22.0122 33.2111 27.7022 27.5211C33.3923 21.831 40.6424 17.9568 48.535 16.3888C56.4277 14.8207 64.6081 15.6292 72.0411 18.7121C79.4741 21.7949 85.8255 27.0134 90.2915 33.7073C94.7576 40.4011 97.1375 48.2694 97.1301 56.3163C97.1105 67.0867 92.8232 77.4103 85.2074 85.0262C77.5915 92.642 67.2679 96.9293 56.4974 96.949Z" fill="#FFD241"/>
</svg>
