<svg width="1140" height="147" viewBox="0 0 1140 147" fill="none" xmlns="http://www.w3.org/2000/svg">
<path d="M0.382032 2.6H68.182C84.4487 2.6 97.0487 6.53333 105.982 14.4C114.915 22.1333 119.382 32.6667 119.382 46C119.382 59.2 114.849 69.7333 105.782 77.6C96.7154 85.4667 84.182 89.4 68.182 89.4H37.982V145H0.382032V2.6ZM63.182 61.4C77.3154 61.4 84.382 56.4 84.382 46.4C84.382 41.3333 82.6487 37.5333 79.182 35C75.8487 32.3333 70.5154 31 63.182 31H37.982V61.4H63.182ZM205.487 146.8C190.953 146.8 178.287 143.867 167.487 138C156.687 132 148.353 123.467 142.487 112.4C136.753 101.333 133.887 88.4 133.887 73.6C133.887 58.8 136.82 45.9333 142.687 35C148.553 24.0667 156.82 15.6667 167.487 9.79999C178.287 3.79999 190.953 0.799997 205.487 0.799997C220.02 0.799997 232.62 3.79999 243.287 9.79999C254.087 15.6667 262.353 24.0667 268.087 35C273.82 45.9333 276.687 58.8 276.687 73.6C276.687 88.4 273.82 101.333 268.087 112.4C262.353 123.467 254.087 132 243.287 138C232.62 143.867 220.02 146.8 205.487 146.8ZM205.487 118.2C216.153 118.2 224.487 114.4 230.487 106.8C236.62 99.2 239.687 88.1333 239.687 73.6C239.687 59.2 236.62 48.2667 230.487 40.8C224.487 33.2 216.153 29.4 205.487 29.4C194.82 29.4 186.487 33.1333 180.487 40.6C174.487 48.0667 171.487 59.0667 171.487 73.6C171.487 88.2667 174.487 99.4 180.487 107C186.487 114.467 194.82 118.2 205.487 118.2ZM505.527 2.6L454.527 145H424.727L394.927 60.4L364.527 145H334.727L283.927 2.6H322.127L351.327 92.4L383.127 2.6H408.727L439.327 94L469.927 2.6H505.527ZM520.695 2.6H622.295V31.4H557.295V58.2H618.095V87H557.295V116.2H622.295V145H520.695V2.6ZM765.198 145H725.398L706.998 97.6C704.864 92.2667 699.864 89.6 691.998 89.6H678.398V145H641.398V2.6H707.598C724.798 2.6 737.731 6.33333 746.398 13.8C755.064 21.1333 759.398 31.6667 759.398 45.4C759.398 55 756.798 63.3333 751.598 70.4C746.531 77.3333 739.331 82.2667 729.998 85.2C733.998 86 737.598 87.8667 740.798 90.8C743.998 93.7333 746.531 97.6667 748.398 102.6L765.198 145ZM701.598 61.6C709.598 61.6 715.398 60.4 718.998 58C722.598 55.4667 724.398 51.6 724.398 46.4C724.398 40.9333 722.598 37 718.998 34.6C715.531 32.2 709.731 31 701.598 31H677.998V61.6H701.598ZM779.874 76.8H844.674V104.8H779.874V76.8ZM932.513 146.8C911.713 146.8 895.98 141.6 885.313 131.2C874.647 120.667 869.313 105.267 869.313 85V2.6H905.913V86.4C905.913 96.6667 908.18 104.533 912.713 110C917.38 115.467 923.98 118.2 932.513 118.2C940.913 118.2 947.38 115.467 951.913 110C956.447 104.4 958.713 96.5333 958.713 86.4V2.6H995.713V85C995.713 105 990.247 120.333 979.313 131C968.513 141.533 952.913 146.8 932.513 146.8ZM1020.3 2.6H1088.1C1104.37 2.6 1116.97 6.53333 1125.9 14.4C1134.84 22.1333 1139.3 32.6667 1139.3 46C1139.3 59.2 1134.77 69.7333 1125.7 77.6C1116.64 85.4667 1104.1 89.4 1088.1 89.4H1057.9V145H1020.3V2.6ZM1083.1 61.4C1097.24 61.4 1104.3 56.4 1104.3 46.4C1104.3 41.3333 1102.57 37.5333 1099.1 35C1095.77 32.3333 1090.44 31 1083.1 31H1057.9V61.4H1083.1Z" fill="white"/>
</svg>
