<svg width="303" height="210" viewBox="0 0 303 210" fill="none" xmlns="http://www.w3.org/2000/svg">
<g filter="url(#filter0_d)">
<path d="M263.566 5H39.4339C34.2237 5 30 9.22609 30 14.4392V145.561C30 150.774 34.2237 155 39.4339 155H263.566C268.776 155 273 150.774 273 145.561V14.4392C273 9.22609 268.776 5 263.566 5Z" fill="#FAFAFA"/>
<path d="M273 14.4392V21.2142H30V14.4392C30 11.9358 30.9939 9.53488 32.7631 7.76469C34.5323 5.99449 36.9319 5 39.4339 5H263.566C266.068 5 268.468 5.99449 270.237 7.76469C272.006 9.53488 273 11.9358 273 14.4392Z" fill="#FFC200"/>
<path d="M239.68 13.1064C239.688 13.8021 239.488 14.4843 239.106 15.066C238.725 15.6476 238.179 16.1023 237.538 16.372C236.897 16.6418 236.19 16.7143 235.507 16.5804C234.825 16.4465 234.198 16.1123 233.706 15.6203C233.214 15.1283 232.88 14.5009 232.747 13.8181C232.613 13.1353 232.685 12.4281 232.955 11.7867C233.224 11.1454 233.679 10.5989 234.26 10.217C234.841 9.83518 235.523 9.63526 236.219 9.64278C237.134 9.65268 238.008 10.0208 238.655 10.6682C239.303 11.3156 239.67 12.1908 239.68 13.1064Z" fill="white"/>
<path d="M250.366 13.1064C250.373 13.7989 250.175 14.478 249.797 15.058C249.419 15.638 248.877 16.0927 248.24 16.3646C247.604 16.6366 246.901 16.7135 246.221 16.5858C245.54 16.4581 244.913 16.1314 244.419 15.647C243.924 15.1627 243.584 14.5424 243.441 13.8647C243.299 13.187 243.361 12.4822 243.618 11.8395C243.876 11.1969 244.319 10.6451 244.89 10.2541C245.461 9.8631 246.136 9.65036 246.828 9.64279C247.287 9.63776 247.744 9.72337 248.17 9.89471C248.597 10.0661 248.985 10.3198 249.314 10.6414C249.642 10.9631 249.904 11.3463 250.085 11.7692C250.265 12.1922 250.361 12.6465 250.366 13.1064Z" fill="white"/>
<path d="M261.019 13.1064C261.026 13.8021 260.827 14.4843 260.445 15.066C260.063 15.6476 259.517 16.1023 258.876 16.372C258.235 16.6418 257.528 16.7143 256.846 16.5804C256.164 16.4465 255.537 16.1123 255.045 15.6203C254.553 15.1283 254.219 14.5009 254.085 13.8181C253.951 13.1353 254.024 12.4281 254.293 11.7867C254.563 11.1454 255.017 10.5989 255.599 10.217C256.18 9.83518 256.862 9.63526 257.557 9.64278C258.472 9.65268 259.347 10.0208 259.994 10.6682C260.641 11.3156 261.009 12.1908 261.019 13.1064Z" fill="white"/>
<path d="M108.777 49.2275H52.0974V57.8294H108.777V49.2275Z" fill="#FFC200"/>
<path d="M174.856 57.9811H116.274V49.1128H174.856V57.9811ZM118.176 56.078H172.954V51.0159H118.176V56.078Z" fill="#FFC200"/>
<path d="M230.049 67.7637H52.0974V69.4764H230.049V67.7637Z" fill="#FFC200"/>
<path d="M185.96 78.5342H52.0974V80.2469H185.96V78.5342Z" fill="#FFC200"/>
<path d="M137.155 89.3057H52.0974V91.0184H137.155V89.3057Z" fill="#FFC200"/>
<path d="M230.056 89.3057H143.287V91.0184H230.056V89.3057Z" fill="#FFC200"/>
<path d="M230.019 78.5342H192.397V80.2469H230.019V78.5342Z" fill="#FFC200"/>
<path d="M160.892 100.077H52.0974V101.79H160.892V100.077Z" fill="#FFC200"/>
<path d="M230.049 110.392H52.0974V112.105H230.049V110.392Z" fill="#FFC200"/>
</g>
<defs>
<filter id="filter0_d" x="0" y="0" width="303" height="210" filterUnits="userSpaceOnUse" color-interpolation-filters="sRGB">
<feFlood flood-opacity="0" result="BackgroundImageFix"/>
<feColorMatrix in="SourceAlpha" type="matrix" values="0 0 0 0 0 0 0 0 0 0 0 0 0 0 0 0 0 0 127 0"/>
<feOffset dy="25"/>
<feGaussianBlur stdDeviation="15"/>
<feColorMatrix type="matrix" values="0 0 0 0 0 0 0 0 0 0 0 0 0 0 0 0 0 0 0.07 0"/>
<feBlend mode="normal" in2="BackgroundImageFix" result="effect1_dropShadow"/>
<feBlend mode="normal" in="SourceGraphic" in2="effect1_dropShadow" result="shape"/>
</filter>
</defs>
</svg>
