<svg width="374" height="255" viewBox="0 0 374 255" fill="none" xmlns="http://www.w3.org/2000/svg">
<g filter="url(#filter0_d)">
<path d="M331.4 5H42.1738C35.4504 5 30 10.4662 30 17.2092V186.808C30 193.551 35.4504 199.017 42.1738 199.017H331.4C338.124 199.017 343.574 193.551 343.574 186.808V17.2092C343.574 10.4662 338.124 5 331.4 5Z" fill="#FAFAFA"/>
</g>
<path d="M343.574 17.2092V25.9722H30V17.2092C30 13.9711 31.2826 10.8656 33.5656 8.57598C35.8487 6.28632 38.9451 5 42.1738 5H331.4C334.629 5 337.725 6.28632 340.008 8.57598C342.291 10.8656 343.574 13.9711 343.574 17.2092Z" fill="#FFC200"/>
<path d="M300.579 15.4851C300.589 16.385 300.331 17.2674 299.839 18.0198C299.346 18.7721 298.641 19.3602 297.814 19.7091C296.987 20.058 296.075 20.1518 295.194 19.9786C294.314 19.8054 293.505 19.3731 292.87 18.7367C292.236 18.1003 291.804 17.2888 291.632 16.4057C291.459 15.5225 291.553 14.6078 291.901 13.7782C292.248 12.9487 292.835 12.2418 293.585 11.7479C294.335 11.254 295.215 10.9954 296.112 11.0051C297.293 11.018 298.422 11.4941 299.257 12.3315C300.092 13.1689 300.567 14.3009 300.579 15.4851Z" fill="white"/>
<path d="M314.372 15.4851C314.381 16.3808 314.126 17.2593 313.638 18.0095C313.149 18.7596 312.45 19.3477 311.629 19.6995C310.808 20.0512 309.901 20.1508 309.023 19.9856C308.145 19.8204 307.336 19.3978 306.697 18.7713C306.059 18.1449 305.62 17.3426 305.436 16.466C305.252 15.5894 305.332 14.6778 305.665 13.8465C305.998 13.0153 306.569 12.3016 307.306 11.7959C308.043 11.2901 308.913 11.0149 309.806 11.0052C310.399 10.9987 310.988 11.1094 311.538 11.331C312.089 11.5526 312.59 11.8808 313.014 12.2968C313.438 12.7128 313.776 13.2085 314.009 13.7556C314.242 14.3026 314.365 14.8903 314.372 15.4851Z" fill="white"/>
<path d="M328.115 15.4851C328.125 16.385 327.867 17.2674 327.374 18.0198C326.882 18.7721 326.177 19.3602 325.35 19.7091C324.523 20.058 323.611 20.1518 322.73 19.9786C321.849 19.8054 321.04 19.3731 320.406 18.7367C319.771 18.1003 319.34 17.2888 319.167 16.4057C318.995 15.5225 319.088 14.6078 319.436 13.7782C319.784 12.9487 320.37 12.2418 321.121 11.7479C321.871 11.254 322.751 10.9954 323.648 11.0051C324.829 11.018 325.957 11.4941 326.792 12.3315C327.627 13.1689 328.102 14.3009 328.115 15.4851Z" fill="white"/>
<path opacity="0.6" d="M316.71 92.8905C313.719 82.7181 308.363 73.4013 301.081 65.7051L257.872 108.666L316.71 92.8905Z" fill="#FFC200"/>
<path d="M254.014 108.665L298.968 63.8811C286.578 51.8608 270.023 45.1472 252.798 45.1577C251.044 45.1577 249.327 45.2836 247.602 45.4168L254.014 108.665Z" fill="#FFC200"/>
<path opacity="0.1" d="M253.587 113.569L206.508 160.087C216.91 170.082 230.294 176.442 244.643 178.208C258.993 179.974 273.53 177.05 286.065 169.878C298.6 162.705 308.453 151.673 314.139 138.442C319.826 125.211 321.038 110.5 317.592 96.5239L253.587 113.569Z" fill="#FFC200"/>
<path opacity="0.2" d="M196.709 74.1094C188.033 86.8041 183.991 102.063 185.254 117.352C186.518 132.641 193.011 147.042 203.656 158.163L250.402 112.111L196.709 74.1094Z" fill="#FFC200"/>
<path opacity="0.4" d="M250.4 108.665L243.97 45.1577C235.109 46.2909 226.564 49.2171 218.844 53.7618C211.124 58.3064 204.387 64.3767 199.034 71.6109L250.4 108.665Z" fill="#FFC200"/>
<path d="M56.2114 174.907V162.898H68.2203V174.907H56.2114Z" stroke="#FFC200" stroke-width="2"/>
<path d="M83.2953 174.907V162.898H95.3042V174.907H83.2953Z" stroke="#FFC200" stroke-width="2"/>
<path d="M123.388 161.898H109.379V175.907H123.388V161.898Z" fill="#FFC200"/>
<path d="M137.467 174.907V162.898H149.476V174.907H137.467Z" stroke="#FFC200" stroke-width="2"/>
<path d="M100.974 63.1577H55.2114V71.5631H100.974V63.1577Z" fill="#FFC200"/>
<path d="M156.075 81.8364H55.2114V83.7043H156.075V81.8364Z" fill="#FFC200"/>
<path opacity="0.4" d="M156.075 92.1089H55.2114V93.9767H156.075V92.1089Z" fill="#FFC200"/>
<path opacity="0.4" d="M156.075 102.383H55.2114V104.251H156.075V102.383Z" fill="#FFC200"/>
<path opacity="0.4" d="M116.851 113.589H55.2114V115.457H116.851V113.589Z" fill="#FFC200"/>
<defs>
<filter id="filter0_d" x="0" y="0" width="373.574" height="254.017" filterUnits="userSpaceOnUse" color-interpolation-filters="sRGB">
<feFlood flood-opacity="0" result="BackgroundImageFix"/>
<feColorMatrix in="SourceAlpha" type="matrix" values="0 0 0 0 0 0 0 0 0 0 0 0 0 0 0 0 0 0 127 0"/>
<feOffset dy="25"/>
<feGaussianBlur stdDeviation="15"/>
<feColorMatrix type="matrix" values="0 0 0 0 0 0 0 0 0 0 0 0 0 0 0 0 0 0 0.07 0"/>
<feBlend mode="normal" in2="BackgroundImageFix" result="effect1_dropShadow"/>
<feBlend mode="normal" in="SourceGraphic" in2="effect1_dropShadow" result="shape"/>
</filter>
</defs>
</svg>
