<svg width="68" height="68" viewBox="0 0 68 68" fill="none" xmlns="http://www.w3.org/2000/svg">
<path d="M34 0C15.2513 0 0 15.2527 0 34C0 52.7473 15.2513 68 34 68C52.7487 68 68 52.7473 68 34C68 15.2527 52.7487 0 34 0ZM47.5165 35.1912L27.6832 47.9412C27.4508 48.0919 27.1823 48.1667 26.9167 48.1667C26.6843 48.1667 26.4491 48.1085 26.2388 47.9938C25.7822 47.7448 25.5 47.2688 25.5 46.75V21.25C25.5 20.7312 25.7822 20.2552 26.2388 20.0062C26.6871 19.76 27.2487 19.7751 27.6832 20.0588L47.5165 32.8088C47.9205 33.0689 48.1667 33.5186 48.1667 34C48.1667 34.4814 47.9205 34.931 47.5165 35.1912Z" fill="#FFC200"/>
</svg>
