<svg width="263" height="263" viewBox="0 0 263 263" fill="none" xmlns="http://www.w3.org/2000/svg">
<g filter="url(#filter0_d)">
<path d="M221.911 5H41.0886C34.9645 5 30 9.96454 30 16.0886V196.911C30 203.035 34.9645 208 41.0886 208H221.911C228.035 208 233 203.035 233 196.911V16.0886C233 9.96454 228.035 5 221.911 5Z" fill="white"/>
</g>
<path d="M107.078 122.746H51.8477V131.243H107.078V122.746Z" fill="#FFC200"/>
<path d="M170.802 131.243H114.358V122.746H170.802V131.243ZM116.19 129.419H168.97V124.569H116.19V129.419Z" fill="#FFC200"/>
<g opacity="0.4">
<path d="M204.182 163.409H125.281V165.229H204.182V163.409Z" fill="#FFC200"/>
<path d="M213.287 142.773H51.8436V144.594H213.287V142.773Z" fill="#FFC200"/>
<path d="M213.287 173.119H51.8434V174.94H213.287V173.119Z" fill="#FFC200"/>
<path d="M173.229 153.091H51.8434V154.912H173.229V153.091Z" fill="#FFC200"/>
<path d="M173.229 183.438H51.8434V185.258H173.229V183.438Z" fill="#FFC200"/>
<path d="M128.924 163.409H51.8434V165.229H128.924V163.409Z" fill="#FFC200"/>
<path d="M212.684 153.091H178.696V154.912H212.684V153.091Z" fill="#FFC200"/>
<path d="M212.684 183.438H178.696V185.258H212.684V183.438Z" fill="#FFC200"/>
</g>
<path opacity="0.1" d="M209.645 30.4917V100.896H53.0569V55.464C56.6688 59.9497 60.8735 63.9226 65.5554 67.2732C66.0513 67.6192 66.5622 67.9803 67.0881 68.3112C73.2637 72.4031 81.0622 75.6976 89.6269 74.9755C92.4518 74.7348 94.9912 73.0349 97.4404 70.4173C97.8611 69.9811 98.2668 69.5147 98.6725 69.0183C105.648 60.621 112.049 45.5052 122.053 37.3155C127.207 33.1033 132.932 34.5625 138.717 38.5189C139.212 38.865 139.723 39.226 140.219 39.6021C148.255 45.6646 156.279 55.9966 162.845 62.1043C163.717 62.9317 164.573 63.6688 165.385 64.3157C167.428 65.9253 169.291 66.9332 170.899 67.0386C186.989 68.0976 209.645 30.4917 209.645 30.4917Z" fill="#FFC200"/>
<path d="M209.645 92.9411V100.896H208.725C208.47 99.2628 208.214 96.9337 207.929 94.2568C206.697 82.9746 204.428 62.001 198.36 57.7362C195.13 55.4525 192.14 58.8553 187.512 64.5721C183.53 69.5024 179.022 75.0981 173.192 75.7485C167.41 76.3988 165.036 70.0015 162.857 61.8801C162.542 60.776 162.256 59.6569 161.956 58.5075C159.657 49.648 157.042 39.6059 150.611 35.2654C149.109 34.2521 147.651 33.9648 146.148 34.3882C144.138 34.9478 142.17 36.7324 140.231 39.2581C136.324 44.3396 132.628 52.4459 129.202 59.8837C123.793 71.6802 119.03 81.9038 113.774 81.7072C107.403 81.4652 102.249 76.2476 97.4404 70.2435C96.3435 68.8974 95.2917 67.5212 94.2249 66.1449C89.1912 59.5964 84.431 53.3987 79.4995 53.928C75.5476 54.3515 71.5207 58.9612 67.1782 68.0203C67.164 68.0586 67.1437 68.0944 67.1181 68.1261C60.4376 81.9945 54.86 98.4763 54.0245 100.896H53.0569V97.9924C55.0102 92.4117 59.8756 78.8942 65.4803 67.2187C65.4994 67.1703 65.5247 67.1245 65.5554 67.0826C70.2435 57.3278 74.601 52.5639 79.2891 52.0678C85.2694 51.4477 90.3301 58.0235 95.6944 64.9955C96.6861 66.281 97.6778 67.5817 98.6695 68.8369C103.282 74.5991 108.151 79.6353 113.831 79.8319C113.86 79.8392 113.891 79.8392 113.921 79.8319C117.99 79.8319 122.828 69.2755 127.516 59.0822C131.092 51.2965 134.744 43.3535 138.726 38.154C140.919 35.2805 143.218 33.254 145.638 32.5734C147.681 31.9987 149.695 32.3768 151.648 33.6925C158.665 38.4263 161.37 48.8313 163.759 58.0235C164.315 60.1408 164.841 62.1976 165.397 64.073C167.17 70.0317 169.228 74.3268 172.982 73.8731C178.06 73.2984 182.313 68.0203 186.069 63.3773C190.472 57.9328 194.619 52.7907 199.424 56.1633C205.964 60.8214 208.202 79.7714 209.645 92.9411Z" fill="#FFC200"/>
<defs>
<filter id="filter0_d" x="0" y="0" width="263" height="263" filterUnits="userSpaceOnUse" color-interpolation-filters="sRGB">
<feFlood flood-opacity="0" result="BackgroundImageFix"/>
<feColorMatrix in="SourceAlpha" type="matrix" values="0 0 0 0 0 0 0 0 0 0 0 0 0 0 0 0 0 0 127 0"/>
<feOffset dy="25"/>
<feGaussianBlur stdDeviation="15"/>
<feColorMatrix type="matrix" values="0 0 0 0 0 0 0 0 0 0 0 0 0 0 0 0 0 0 0.07 0"/>
<feBlend mode="normal" in2="BackgroundImageFix" result="effect1_dropShadow"/>
<feBlend mode="normal" in="SourceGraphic" in2="effect1_dropShadow" result="shape"/>
</filter>
</defs>
</svg>
