<svg width="439" height="134" viewBox="0 0 439 134" fill="none" xmlns="http://www.w3.org/2000/svg">
<g filter="url(#filter0_d)">
<rect x="16.9223" y="0.187988" width="405.617" height="101.217" rx="18" fill="white"/>
</g>
<path opacity="0.6" d="M51.6552 71.2157L76.9201 47.9341C77.5718 47.3292 78.4082 46.9619 79.294 46.8915C80.1799 46.8211 81.0636 47.0517 81.8025 47.5461L89.5525 52.7456C90.3175 53.2756 91.2473 53.5124 92.1722 53.4126C93.097 53.3129 93.9552 52.8833 94.59 52.2024L115.67 29.6968C116.09 29.2505 116.608 28.9081 117.183 28.6965C117.758 28.485 118.374 28.4101 118.983 28.4778C119.591 28.5456 120.176 28.754 120.691 29.0868C121.205 29.4196 121.635 29.8675 121.947 30.3953L145.197 70.5948C145.52 71.1865 145.684 71.8524 145.672 72.5268C145.66 73.2012 145.473 73.8607 145.128 74.4405C144.784 75.0202 144.295 75.5001 143.709 75.8328C143.123 76.1655 142.461 76.3395 141.787 76.3376L54.4452 77.5793C53.7106 77.576 52.9928 77.3594 52.3786 76.9558C51.7645 76.5522 51.2805 75.9789 50.9852 75.3053C50.6899 74.6318 50.596 73.887 50.7149 73.1611C50.8339 72.4352 51.1605 71.7594 51.6552 71.2157Z" fill="#FFC200"/>
<path opacity="0.6" d="M51.6552 71.2157L76.9201 47.9341C77.5718 47.3292 78.4082 46.9619 79.294 46.8915C80.1799 46.8211 81.0636 47.0517 81.8025 47.5461L89.5525 52.7456C90.3175 53.2756 91.2473 53.5124 92.1722 53.4126C93.097 53.3129 93.9552 52.8833 94.59 52.2024L115.67 29.6968C116.09 29.2505 116.608 28.9081 117.183 28.6965C117.758 28.485 118.374 28.4101 118.983 28.4778C119.591 28.5456 120.176 28.754 120.691 29.0868C121.205 29.4196 121.635 29.8675 121.947 30.3953L145.197 70.5948C145.52 71.1865 145.684 71.8524 145.672 72.5268C145.66 73.2012 145.473 73.8607 145.128 74.4405C144.784 75.0202 144.295 75.5001 143.709 75.8328C143.123 76.1655 142.461 76.3395 141.787 76.3376L54.4452 77.5793C53.7106 77.576 52.9928 77.3594 52.3786 76.9558C51.7645 76.5522 51.2805 75.9789 50.9852 75.3053C50.6899 74.6318 50.596 73.887 50.7149 73.1611C50.8339 72.4352 51.1605 71.7594 51.6552 71.2157Z" fill="#FFC200"/>
<path opacity="0.6" d="M86.3634 29.3032C86.3943 30.353 86.1116 31.3881 85.5516 32.2761C84.9916 33.1641 84.1797 33.8646 83.2199 34.2879C82.2601 34.7112 81.1959 34.8381 80.1636 34.6524C79.1314 34.4666 78.1779 33.9767 77.4253 33.2452C76.6727 32.5137 76.1552 31.574 75.939 30.5464C75.7227 29.5187 75.8177 28.4498 76.2116 27.4764C76.6055 26.5031 77.2805 25.6696 78.1501 25.0825C79.0198 24.4955 80.0446 24.1817 81.0935 24.1813C81.7754 24.171 82.4526 24.2953 83.0865 24.5472C83.7204 24.7991 84.2986 25.1735 84.7879 25.6491C85.2773 26.1248 85.6683 26.6923 85.9387 27.3192C86.209 27.9462 86.3533 28.6204 86.3634 29.3032Z" fill="#FFC200"/>
<path opacity="0.6" d="M86.3634 29.3032C86.3943 30.353 86.1116 31.3881 85.5516 32.2761C84.9916 33.1641 84.1797 33.8646 83.2199 34.2879C82.2601 34.7112 81.1959 34.8381 80.1636 34.6524C79.1314 34.4666 78.1779 33.9767 77.4253 33.2452C76.6727 32.5137 76.1552 31.574 75.939 30.5464C75.7227 29.5187 75.8177 28.4498 76.2116 27.4764C76.6055 26.5031 77.2805 25.6696 78.1501 25.0825C79.0198 24.4955 80.0446 24.1817 81.0935 24.1813C81.7754 24.171 82.4526 24.2953 83.0865 24.5472C83.7204 24.7991 84.2986 25.1735 84.7879 25.6491C85.2773 26.1248 85.6683 26.6923 85.9387 27.3192C86.209 27.9462 86.3533 28.6204 86.3634 29.3032Z" fill="#FFC200"/>
<path d="M243.175 26.9814H174.704V36.9047H243.175V26.9814Z" fill="#FFC200"/>
<path opacity="0.4" d="M388.057 49.6719H174.377V51.9211H388.057V49.6719Z" fill="#FFC200"/>
<path opacity="0.4" d="M334.825 62.418H174.377V64.6672H334.825V62.418Z" fill="#FFC200"/>
<path opacity="0.4" d="M276.344 75.1641H174.377V77.4133H276.344V75.1641Z" fill="#FFC200"/>
<path opacity="0.4" d="M387.304 62.418H342.319V64.6672H387.304V62.418Z" fill="#FFC200"/>
<path d="M255.579 36.4047V27.4814H264.503V36.4047H255.579Z" stroke="#FFC200"/>
<path d="M283.856 26.9814H273.933V36.9047H283.856V26.9814Z" fill="#FFC200"/>
<path d="M303.706 26.9814H292.791V36.9047H303.706V26.9814Z" fill="#FFC200"/>
<path d="M313.134 36.4047V27.4814H322.057V36.4047H313.134Z" stroke="#FFC200"/>
<defs>
<filter id="filter0_d" x="0.922302" y="0.187988" width="437.617" height="133.217" filterUnits="userSpaceOnUse" color-interpolation-filters="sRGB">
<feFlood flood-opacity="0" result="BackgroundImageFix"/>
<feColorMatrix in="SourceAlpha" type="matrix" values="0 0 0 0 0 0 0 0 0 0 0 0 0 0 0 0 0 0 127 0"/>
<feOffset dy="16"/>
<feGaussianBlur stdDeviation="8"/>
<feColorMatrix type="matrix" values="0 0 0 0 0 0 0 0 0 0 0 0 0 0 0 0 0 0 0.07 0"/>
<feBlend mode="normal" in2="BackgroundImageFix" result="effect1_dropShadow"/>
<feBlend mode="normal" in="SourceGraphic" in2="effect1_dropShadow" result="shape"/>
</filter>
</defs>
</svg>
