<svg width="166" height="83" viewBox="0 0 166 83" fill="none" xmlns="http://www.w3.org/2000/svg">
<path fill-rule="evenodd" clip-rule="evenodd" d="M110.041 51.7429C125.333 61.9942 144.779 65.6022 165.891 62.5905C143.794 73.0061 127.057 76.0873 103.851 60.5358C93.2525 53.4334 85.1253 40.7293 71.7149 32.221C71.4134 32.0295 71.0543 31.85 70.7375 31.6603C59.6426 52.0952 45.7291 76.2973 0.436523 82.9915C0.436523 82.9915 2.24389 82.2276 2.99089 81.982C25.9395 74.3578 45.6614 48.6194 64.0755 28.3132C61.4909 27.228 58.8363 26.3181 56.1295 25.5894C55.6756 25.4692 57.2763 25.8266 56.3463 25.6538C58.9905 26.1941 60.0373 26.3568 61.4449 26.6362C62.6459 26.8412 63.857 27.0326 65.0783 27.2088C74.835 16.5323 84.2309 7.50898 93.5523 3.67742C84.0158 8.17636 78.5226 17.3775 72.7193 28.0151C91.9855 29.3244 105.884 25.249 109.504 18.3921C112.946 11.8995 108.325 5.4814 90.9997 2.95244C90.0218 2.82257 89.0421 2.70738 88.0608 2.60689C75.8666 1.36867 75.4787 1.47877 66.4656 1.62953C76.2409 0.76226 82.3253 -0.606393 93.7048 0.309995C117.248 2.20883 128.428 11.6912 124.171 19.7269C119.919 27.783 107.191 36.6471 76.451 30.4966C74.8892 30.1832 73.3698 29.8682 71.8826 29.5497C71.874 29.5678 71.8644 29.5853 71.8538 29.6022C86.3347 34.7008 95.6019 42.0607 110.041 51.7429Z" fill="#00AEEF"/>
<path fill-rule="evenodd" clip-rule="evenodd" d="M133.425 30.4389C123.162 36.1591 116.701 47.0152 116.378 58.8181L116.364 59.1349C116.039 66.2644 118.065 72.8349 122.349 78.0318C123.03 78.8601 123.743 79.6782 124.564 80.4032C125.24 81.0011 125.991 81.3839 126.597 81.6668C127.705 82.0124 128.037 81.97 128.32 82.3562C128.43 82.5442 129.182 83.3776 127.359 82.7899C99.9151 73.9478 48.8853 18.7698 0 31.0131L4.45998 29.3091C70.6093 3.44016 90.6665 67.235 124.629 80.9469C118.245 76.2989 113.551 69.3913 111.186 61.8383C106.768 47.7351 111.293 31.484 124.72 24.2207C137.743 17.1775 156.025 19.7624 166 30.986C156.087 24.883 143.556 24.7932 133.425 30.4389Z" fill="#53BC47"/>
</svg>
