<svg width="633" height="371" viewBox="0 0 633 371" fill="none" xmlns="http://www.w3.org/2000/svg" style="">
<path d="M57.3771 353.74V354.24H57.8771H572.549H573.049V353.74V17.8941C573.049 13.4538 571.31 9.19404 568.213 6.05215C565.116 2.91002 560.915 1.14343 556.532 1.14343H73.8939C69.511 1.14343 65.3091 2.91002 62.2122 6.05215C59.1155 9.19404 57.3771 13.4538 57.3771 17.8941V353.74ZM573.116 354.324H57.3093V17.8941C57.3093 13.4271 59.0584 9.1445 62.1694 5.98805C65.2802 2.83185 69.4977 1.06006 73.8939 1.06006H556.532C560.928 1.06006 565.145 2.83185 568.256 5.98805C571.367 9.1445 573.116 13.4271 573.116 17.8941V354.324Z" stroke="#FFC200" class="IkKjvGDt_0"></path>
<path d="M315.211 16.6145C314.543 16.6145 313.889 16.4135 313.333 16.036C312.776 15.6585 312.341 15.1212 312.083 14.4911C311.826 13.861 311.759 13.1673 311.89 12.4979C312.021 11.8285 312.345 11.2147 312.819 10.7335C313.293 10.2525 313.897 9.92574 314.552 9.79343C315.208 9.66114 315.887 9.72897 316.505 9.98867C317.123 10.2484 317.653 10.6888 318.026 11.2551C318.399 11.8216 318.598 12.4884 318.598 13.171C318.598 14.0866 318.24 14.9633 317.604 15.6085C316.968 16.2535 316.107 16.6145 315.211 16.6145ZM315.211 9.81091C314.775 9.81091 314.342 9.89823 313.939 10.0677C313.536 10.2371 313.17 10.4853 312.862 10.7976C312.554 11.11 312.31 11.4804 312.144 11.8875C311.978 12.2947 311.892 12.7308 311.892 13.171C311.892 13.6113 311.978 14.0474 312.144 14.4545C312.31 14.8617 312.554 15.2321 312.862 15.5444C313.17 15.8568 313.536 16.1049 313.939 16.2744C314.342 16.4438 314.775 16.5311 315.211 16.5311C316.094 16.5311 316.939 16.1753 317.561 15.5444C318.182 14.9137 318.53 14.0599 318.53 13.171C318.53 12.2822 318.182 11.4283 317.561 10.7976C316.939 10.1667 316.094 9.81091 315.211 9.81091Z" stroke="#FFC200" class="IkKjvGDt_1"></path>
<path d="M1.11049 354.324H0.558216L0.612957 354.873C0.83473 357.1 2.33049 359.153 4.44149 360.956C6.56306 362.769 9.37456 364.39 12.3726 365.745C18.3567 368.448 25.21 370.144 29.0437 370.144H603.511C607.366 370.144 614.219 368.448 620.204 365.745C623.202 364.39 626.013 362.769 628.137 360.957C630.251 359.153 631.751 357.101 631.984 354.876L632.042 354.324H631.487H1.11049ZM603.511 370.228H29.0437C24.8674 370.228 17.6807 368.478 11.533 365.558C8.46371 364.1 5.68604 362.366 3.68338 360.44C1.67649 358.51 0.5 356.441 0.5 354.304V354.24H632.055V354.304C632.055 356.44 630.871 358.509 628.854 360.439C626.842 362.365 624.052 364.1 620.974 365.558C614.81 368.478 607.623 370.228 603.511 370.228Z" stroke="#FFC200" class="IkKjvGDt_2"></path>
<path d="M263.448 354.324H262.923C262.923 354.317 262.923 354.31 262.923 354.304V354.24H369.983V354.304C369.983 355.966 369.332 357.559 368.175 358.733C367.019 359.906 365.452 360.564 363.82 360.564H269.086C267.454 360.564 265.887 359.906 264.73 358.733C263.679 357.666 263.046 356.253 262.939 354.756L262.95 354.872C263.1 356.411 263.811 357.84 264.946 358.878C266.08 359.916 267.557 360.488 269.087 360.481L363.82 360.481L363.821 360.481C365.34 360.475 366.801 359.896 367.919 358.857C369.036 357.819 369.731 356.397 369.87 354.869L369.919 354.324H369.372H263.448Z" stroke="#FFC200" class="IkKjvGDt_3"></path>
<path width="489" height="312" stroke="#FFC200" d="M 80.5,23.5 L 551.5,23.5 A 9,9,0,0,1,560.5,32.5 L 560.5,326.5 A 9,9,0,0,1,551.5,335.5 L 80.5,335.5 A 9,9,0,0,1,71.5,326.5 L 71.5,32.5 A 9,9,0,0,1,80.5,23.5" class="IkKjvGDt_4"></path>
<style data-made-with="vivus-instant">.IkKjvGDt_0{stroke-dasharray:3448 3450;stroke-dashoffset:3449;animation:IkKjvGDt_draw 1000ms linear 0ms forwards;}.IkKjvGDt_1{stroke-dasharray:43 45;stroke-dashoffset:44;animation:IkKjvGDt_draw 1000ms linear 250ms forwards;}.IkKjvGDt_2{stroke-dasharray:2551 2553;stroke-dashoffset:2552;animation:IkKjvGDt_draw 1000ms linear 500ms forwards;}.IkKjvGDt_3{stroke-dasharray:442 444;stroke-dashoffset:443;animation:IkKjvGDt_draw 1000ms linear 750ms forwards;}.IkKjvGDt_4{stroke-dasharray:1587 1589;stroke-dashoffset:1588;animation:IkKjvGDt_draw 1000ms linear 1000ms forwards;}@keyframes IkKjvGDt_draw{100%{stroke-dashoffset:0;}}@keyframes IkKjvGDt_fade{0%{stroke-opacity:1;}94.44444444444444%{stroke-opacity:1;}100%{stroke-opacity:0;}}</style></svg>
