<svg width="224" height="224" viewBox="0 0 224 224" fill="none" xmlns="http://www.w3.org/2000/svg">
<g filter="url(#filter0_d)">
<path d="M184.287 5H38.9147C33.9912 5 30 8.99123 30 13.9147V159.287C30 164.21 33.9912 168.201 38.9147 168.201H184.287C189.21 168.201 193.201 164.21 193.201 159.287V13.9147C193.201 8.99123 189.21 5 184.287 5Z" fill="white"/>
</g>
<path opacity="0.4" d="M139.688 99.8649C155.259 84.2943 155.259 59.0494 139.688 43.4789C124.118 27.9083 98.8729 27.9083 83.3024 43.4789C67.7318 59.0494 67.7318 84.2943 83.3024 99.8649C98.8729 115.435 124.118 115.435 139.688 99.8649Z" fill="#FFC200"/>
<path d="M99.7422 85.0526V57.9965C99.742 57.3853 99.9035 56.7849 100.21 56.2557C100.517 55.7264 100.959 55.2871 101.49 54.9818C102.022 54.6765 102.625 54.516 103.238 54.5166C103.852 54.5172 104.454 54.6787 104.985 54.985L128.508 68.4932C129.039 68.799 129.48 69.2387 129.787 69.768C130.094 70.2973 130.255 70.8976 130.255 71.5087C130.255 72.1198 130.094 72.7201 129.787 73.2494C129.48 73.7787 129.039 74.2183 128.508 74.5242L104.985 88.0482C104.456 88.3538 103.854 88.5154 103.242 88.5166C102.63 88.5179 102.028 88.3588 101.497 88.0554C100.966 87.752 100.524 87.3149 100.216 86.7878C99.9084 86.2608 99.7448 85.6624 99.7422 85.0526Z" fill="white"/>
<path d="M78.625 147.969V138.985H87.6083V147.969H78.625Z" stroke="#FFC200"/>
<path d="M107.026 138.485H97.043V148.469H107.026V138.485Z" fill="#FFC200"/>
<path d="M125.948 138.485H115.965V148.469H125.948V138.485Z" fill="#FFC200"/>
<path d="M135.383 147.969V138.985H144.366V147.969H135.383Z" stroke="#FFC200"/>
<path opacity="0.5" d="M171.816 24.0025C171.825 24.8386 171.586 25.6587 171.131 26.3589C170.675 27.0591 170.023 27.6082 169.256 27.9365C168.489 28.2648 167.642 28.3578 166.823 28.2036C166.003 28.0493 165.248 27.6549 164.652 27.0701C164.056 26.4853 163.647 25.7364 163.475 24.9181C163.303 24.0998 163.378 23.2489 163.688 22.4729C163.999 21.697 164.532 21.0308 165.22 20.5587C165.908 20.0866 166.721 19.8297 167.554 19.8206C168.108 19.8145 168.657 19.9179 169.171 20.1247C169.685 20.3316 170.153 20.638 170.549 21.0263C170.944 21.4147 171.26 21.8774 171.477 22.388C171.695 22.8987 171.81 23.4473 171.816 24.0025Z" fill="#FFE9A3"/>
<path opacity="0.5" d="M159.611 24.0025C159.62 24.8386 159.381 25.6587 158.926 26.3589C158.47 27.0591 157.818 27.6082 157.051 27.9365C156.284 28.2648 155.437 28.3578 154.618 28.2036C153.798 28.0493 153.043 27.6549 152.447 27.0701C151.851 26.4853 151.441 25.7364 151.27 24.9181C151.098 24.0998 151.173 23.2489 151.483 22.4729C151.794 21.697 152.327 21.0308 153.015 20.5587C153.703 20.0866 154.516 19.8297 155.349 19.8206C155.903 19.8145 156.452 19.9179 156.966 20.1247C157.48 20.3316 157.948 20.638 158.344 21.0263C158.739 21.4147 159.055 21.8774 159.272 22.388C159.49 22.8987 159.605 23.4473 159.611 24.0025Z" fill="#FFE9A3"/>
<path opacity="0.5" d="M184.021 24.0025C184.03 24.8425 183.789 25.6662 183.33 26.3685C182.87 27.0708 182.212 27.6198 181.44 27.9455C180.668 28.2711 179.816 28.3587 178.994 28.1971C178.172 28.0354 177.417 27.6318 176.825 27.0378C176.232 26.4437 175.83 25.6862 175.669 24.8618C175.507 24.0374 175.595 23.1836 175.92 22.4092C176.244 21.6348 176.792 20.975 177.492 20.5139C178.192 20.0529 179.013 19.8115 179.851 19.8206C180.953 19.8325 182.007 20.2769 182.786 21.0586C183.566 21.8403 184.009 22.8971 184.021 24.0025Z" fill="#FFE9A3"/>
<defs>
<filter id="filter0_d" x="0" y="0" width="223.201" height="223.201" filterUnits="userSpaceOnUse" color-interpolation-filters="sRGB">
<feFlood flood-opacity="0" result="BackgroundImageFix"/>
<feColorMatrix in="SourceAlpha" type="matrix" values="0 0 0 0 0 0 0 0 0 0 0 0 0 0 0 0 0 0 127 0"/>
<feOffset dy="25"/>
<feGaussianBlur stdDeviation="15"/>
<feColorMatrix type="matrix" values="0 0 0 0 0 0 0 0 0 0 0 0 0 0 0 0 0 0 0.07 0"/>
<feBlend mode="normal" in2="BackgroundImageFix" result="effect1_dropShadow"/>
<feBlend mode="normal" in="SourceGraphic" in2="effect1_dropShadow" result="shape"/>
</filter>
</defs>
</svg>
