<svg width="246" height="246" viewBox="0 0 246 246" fill="none" xmlns="http://www.w3.org/2000/svg">
<g filter="url(#filter0_d)">
<path d="M205.84 5H40.16C34.5488 5 30 9.54879 30 15.16V180.84C30 186.451 34.5488 191 40.16 191H205.84C211.451 191 216 186.451 216 180.84V15.16C216 9.54879 211.451 5 205.84 5Z" fill="white"/>
</g>
<path d="M163.159 38.3657H128.707V44.754H163.159V38.3657Z" fill="#FFC200"/>
<path d="M130.263 123.833V119.444H162.715V123.833H130.263Z" stroke="#FFC200" stroke-width="2"/>
<path d="M192.103 52.2686H128.707V53.3808H192.103V52.2686Z" fill="#FFC200"/>
<path d="M192.659 132.348H129.263V133.46H192.659V132.348Z" fill="#FFC200"/>
<path d="M192.103 60.0542H128.707V61.1664H192.103V60.0542Z" fill="#FFC200"/>
<path d="M192.659 140.133H129.263V141.246H192.659V140.133Z" fill="#FFC200"/>
<path d="M192.103 67.8394H128.707V69.5077H192.103V67.8394Z" fill="#FFC200"/>
<path d="M192.659 147.918H129.263V149.587H192.659V147.918Z" fill="#FFC200"/>
<path d="M167.634 76.1812H128.707V77.2934H167.634V76.1812Z" fill="#FFC200"/>
<path d="M168.19 156.26H129.263V157.372H168.19V156.26Z" fill="#FFC200"/>
<g clip-path="url(#clip0)">
<path d="M100.503 58.6367H96.1167C96.5638 59.8609 96.8081 61.182 96.8081 62.559V79.1382C96.8081 79.7123 96.7082 80.2634 96.5264 80.7759H103.779C106.488 80.7759 108.692 78.5719 108.692 75.8629V66.8248C108.692 62.31 105.018 58.6367 100.503 58.6367Z" fill="#FFC200"/>
<path d="M63.8513 62.559C63.8513 61.1819 64.0956 59.8609 64.5427 58.6367H60.156C55.641 58.6367 51.9678 62.31 51.9678 66.8249V75.863C51.9678 78.572 54.1716 80.7759 56.8807 80.7759H64.133C63.9512 80.2632 63.8513 79.7123 63.8513 79.1382V62.559Z" fill="#FFC200"/>
<path d="M85.3448 54.3706H75.3162C70.8012 54.3706 67.1279 58.0438 67.1279 62.5588V79.138C67.1279 80.0424 67.8611 80.7757 68.7656 80.7757H91.8954C92.7998 80.7757 93.533 80.0425 93.533 79.138V62.5588C93.533 58.0438 89.8598 54.3706 85.3448 54.3706Z" fill="#FFC200"/>
<path d="M80.3293 32.6592C74.8994 32.6592 70.4819 37.0767 70.4819 42.5067C70.4819 46.1898 72.5148 49.4064 75.5168 51.0953C76.9408 51.8963 78.5824 52.354 80.3293 52.354C82.0762 52.354 83.7178 51.8963 85.1418 51.0953C88.144 49.4064 90.1767 46.1896 90.1767 42.5067C90.1767 37.0768 85.7592 32.6592 80.3293 32.6592Z" fill="#FFC200"/>
<path d="M63.0379 41.8379C58.977 41.8379 55.6733 45.1415 55.6733 49.2024C55.6733 53.2633 58.977 56.567 63.0379 56.567C64.068 56.567 65.0489 56.3536 65.9399 55.97C67.4805 55.3068 68.7508 54.1326 69.5368 52.662C70.0885 51.6298 70.4024 50.4522 70.4024 49.2024C70.4024 45.1417 67.0988 41.8379 63.0379 41.8379Z" fill="#FFC200"/>
<path d="M97.6219 41.8379C93.561 41.8379 90.2573 45.1415 90.2573 49.2024C90.2573 50.4523 90.5712 51.6299 91.1229 52.662C91.9089 54.1328 93.1792 55.3069 94.7198 55.97C95.6109 56.3536 96.5918 56.567 97.6219 56.567C101.683 56.567 104.986 53.2633 104.986 49.2024C104.986 45.1415 101.683 41.8379 97.6219 41.8379Z" fill="#FFC200"/>
</g>
<g clip-path="url(#clip1)">
<path d="M91.4721 125.462C88.3012 126.124 84.904 126.516 81.4033 126.61V136.278H92.8627C92.7571 132.47 92.2819 128.809 91.4721 125.462Z" fill="#FFE9A3"/>
<path d="M63.4241 136.279C63.5315 132.214 64.0401 128.291 64.9117 124.691C62.0573 123.89 59.4457 122.854 57.1809 121.609C54.0788 125.889 52.2736 130.942 51.9678 136.279H63.4241Z" fill="#FFE9A3"/>
<path d="M63.4241 139.537H51.9678C52.2736 144.874 54.0788 149.926 57.1808 154.207C59.4456 152.962 62.0573 151.926 64.9117 151.125C64.0401 147.524 63.5314 143.602 63.4241 139.537Z" fill="#FFE9A3"/>
<path d="M84.4577 111.986C83.4614 111.143 82.4383 110.575 81.4014 110.284V123.351C84.601 123.262 87.6963 122.911 90.5818 122.324C90.0523 120.706 89.4368 119.185 88.7384 117.789C87.4838 115.28 86.0435 113.327 84.4577 111.986Z" fill="#FFE9A3"/>
<path d="M65.7877 154.257C63.4024 154.927 61.2103 155.772 59.2847 156.775C59.5432 157.055 59.8065 157.332 60.0776 157.604C63.2101 160.736 66.9573 163.03 71.0472 164.374C69.9015 163.02 68.842 161.384 67.8919 159.484C67.088 157.876 66.3848 156.124 65.7877 154.257Z" fill="#FFE9A3"/>
<path d="M70.8058 117.789C70.1075 119.185 69.492 120.706 68.9624 122.324C71.848 122.911 74.9433 123.262 78.1429 123.351V110.284C77.1058 110.575 76.0829 111.143 75.0866 111.986C73.5006 113.327 72.0604 115.28 70.8058 117.789Z" fill="#FFE9A3"/>
<path d="M96.1209 139.537C96.0135 143.602 95.5049 147.524 94.6333 151.125C97.4877 151.926 100.099 152.962 102.364 154.207C105.466 149.926 107.271 144.874 107.577 139.537H96.1209Z" fill="#FFE9A3"/>
<path d="M93.7571 121.558C96.1425 120.888 98.3346 120.044 100.26 119.04C100.002 118.76 99.7383 118.483 99.4671 118.212C96.3347 115.08 92.5875 112.786 88.4976 111.442C89.6432 112.796 90.7028 114.431 91.6528 116.331C92.4568 117.939 93.16 119.692 93.7571 121.558Z" fill="#FFE9A3"/>
<path d="M88.7404 158.027C89.4388 156.63 90.0542 155.11 90.5838 153.491C87.6982 152.905 84.6029 152.554 81.4033 152.465V165.532C82.4404 165.241 83.4633 164.673 84.4596 163.83C86.0456 162.488 87.4859 160.536 88.7404 158.027Z" fill="#FFE9A3"/>
<path d="M94.6333 124.691C95.5049 128.291 96.0135 132.214 96.1209 136.278H107.577C107.271 130.942 105.466 125.889 102.364 121.609C100.099 122.854 97.4877 123.89 94.6333 124.691Z" fill="#FFE9A3"/>
<path d="M81.4033 139.537V149.206C84.904 149.299 88.3011 149.691 91.4721 150.353C92.2819 147.006 92.7571 143.345 92.8627 139.537H81.4033Z" fill="#FFE9A3"/>
<path d="M78.1424 136.278V126.61C74.6417 126.516 71.2447 126.124 68.0736 125.462C67.2638 128.809 66.7887 132.47 66.6831 136.278H78.1424Z" fill="#FFE9A3"/>
<path d="M65.7877 121.558C66.3847 119.692 67.088 117.939 67.8919 116.331C68.842 114.431 69.9015 112.796 71.0472 111.442C66.9574 112.786 63.2101 115.08 60.0776 118.212C59.8065 118.484 59.5432 118.76 59.2847 119.041C61.2103 120.044 63.4024 120.888 65.7877 121.558Z" fill="#FFE9A3"/>
<path d="M93.759 154.257C93.162 156.124 92.4587 157.876 91.6548 159.484C90.7047 161.384 89.6452 163.02 88.4995 164.374C92.5893 163.03 96.3366 160.736 99.4691 157.604C99.7402 157.332 100.003 157.056 100.262 156.775C98.3364 155.772 96.1443 154.927 93.759 154.257Z" fill="#FFE9A3"/>
<path d="M78.1424 139.537H66.6831C66.7887 143.345 67.2638 147.007 68.0736 150.353C71.2445 149.691 74.6417 149.299 78.1424 149.206V139.537Z" fill="#FFE9A3"/>
<path d="M75.0866 163.83C76.0829 164.673 77.1059 165.24 78.1429 165.532V152.465C74.9433 152.554 71.848 152.905 68.9624 153.491C69.492 155.11 70.1074 156.63 70.8058 158.027C72.0604 160.536 73.5006 162.488 75.0866 163.83Z" fill="#FFE9A3"/>
</g>
<path d="M172.961 14.5112C172.971 15.4073 172.714 16.286 172.224 17.0352C171.733 17.7843 171.031 18.37 170.208 18.7174C169.384 19.0648 168.476 19.1583 167.599 18.9858C166.722 18.8134 165.916 18.3828 165.284 17.7491C164.653 17.1154 164.223 16.3073 164.051 15.4279C163.879 14.5485 163.973 13.6376 164.319 12.8115C164.665 11.9854 165.249 11.2815 165.996 10.7897C166.743 10.2979 167.619 10.0404 168.513 10.0501C169.689 10.0628 170.813 10.5369 171.644 11.3708C172.476 12.2047 172.948 13.332 172.961 14.5112Z" fill="white"/>
<path d="M186.693 14.5112C186.703 15.4032 186.448 16.2779 185.962 17.0249C185.476 17.7719 184.78 18.3576 183.962 18.7079C183.144 19.0581 182.241 19.1573 181.367 18.9928C180.493 18.8282 179.687 18.4075 179.051 17.7836C178.415 17.1598 177.978 16.3609 177.795 15.4879C177.612 14.615 177.692 13.7073 178.023 12.8795C178.354 12.0517 178.923 11.3411 179.657 10.8375C180.391 10.3338 181.258 10.0598 182.147 10.0501C182.738 10.0436 183.324 10.1539 183.872 10.3746C184.42 10.5953 184.919 10.9221 185.342 11.3363C185.764 11.7506 186.1 12.2442 186.332 12.7889C186.564 13.3337 186.687 13.9189 186.693 14.5112Z" fill="white"/>
<path d="M200.382 14.5112C200.391 15.4073 200.135 16.286 199.644 17.0352C199.154 17.7843 198.452 18.37 197.628 18.7174C196.804 19.0648 195.896 19.1583 195.019 18.9858C194.142 18.8134 193.337 18.3828 192.705 17.7491C192.073 17.1154 191.644 16.3073 191.472 15.4279C191.3 14.5485 191.393 13.6376 191.739 12.8115C192.086 11.9854 192.67 11.2815 193.417 10.7897C194.164 10.2979 195.04 10.0404 195.933 10.0501C197.109 10.0628 198.233 10.5369 199.065 11.3708C199.896 12.2047 200.369 13.332 200.382 14.5112Z" fill="white"/>
<defs>
<filter id="filter0_d" x="0" y="0" width="246" height="246" filterUnits="userSpaceOnUse" color-interpolation-filters="sRGB">
<feFlood flood-opacity="0" result="BackgroundImageFix"/>
<feColorMatrix in="SourceAlpha" type="matrix" values="0 0 0 0 0 0 0 0 0 0 0 0 0 0 0 0 0 0 127 0"/>
<feOffset dy="25"/>
<feGaussianBlur stdDeviation="15"/>
<feColorMatrix type="matrix" values="0 0 0 0 0 0 0 0 0 0 0 0 0 0 0 0 0 0 0.07 0"/>
<feBlend mode="normal" in2="BackgroundImageFix" result="effect1_dropShadow"/>
<feBlend mode="normal" in="SourceGraphic" in2="effect1_dropShadow" result="shape"/>
</filter>
<clipPath id="clip0">
<rect width="56.7226" height="56.7226" fill="white" transform="translate(51.9678 28.3564)"/>
</clipPath>
<clipPath id="clip1">
<rect width="55.6104" height="55.6104" fill="white" transform="translate(51.9678 110.103)"/>
</clipPath>
</defs>
</svg>
