<svg width="135" height="138" viewBox="0 0 135 138" fill="none" xmlns="http://www.w3.org/2000/svg">
<g clip-path="url(#clip0)">
<path d="M67.327 18.615C60.9497 18.6167 54.7161 20.5134 49.4145 24.0651C44.1128 27.6168 39.9813 32.6641 37.5424 38.5687C35.1035 44.4733 34.4666 50.97 35.7125 57.2373C36.9583 63.5045 40.0308 69.2609 44.5414 73.7784C49.0521 78.2958 54.7983 81.3716 61.0534 82.6166C67.3085 83.8617 73.7916 83.2201 79.6829 80.773C85.5741 78.326 90.6089 74.1833 94.1506 68.8689C97.6922 63.5546 99.5816 57.3072 99.5799 50.9168C99.5697 42.35 96.1679 34.1373 90.121 28.0812C84.0741 22.0252 75.8763 18.6207 67.327 18.615ZM67.327 73.9454C62.7875 73.9437 58.3504 72.5934 54.5766 70.0652C50.8029 67.5369 47.8619 63.9443 46.1255 59.7414C44.3891 55.5385 43.9352 50.9141 44.8212 46.4528C45.7073 41.9915 47.8934 37.8936 51.1033 34.6771C54.3133 31.4606 58.4028 29.27 62.855 28.3821C67.3072 27.4943 71.9222 27.9491 76.1165 29.6891C80.3107 31.429 83.896 34.376 86.4191 38.1575C88.9422 41.939 90.2898 46.3852 90.2915 50.934C90.2824 57.0326 87.8595 62.8786 83.5543 67.1894C79.2491 71.5002 73.4132 73.9237 67.327 73.9283V73.9454ZM67.327 18.615C60.9497 18.6167 54.7161 20.5134 49.4145 24.0651C44.1128 27.6168 39.9813 32.6641 37.5424 38.5687C35.1035 44.4733 34.4666 50.97 35.7125 57.2373C36.9583 63.5045 40.0308 69.2609 44.5414 73.7784C49.0521 78.2958 54.7983 81.3716 61.0534 82.6166C67.3085 83.8617 73.7916 83.2201 79.6829 80.773C85.5741 78.326 90.6089 74.1833 94.1506 68.8689C97.6922 63.5546 99.5816 57.3072 99.5799 50.9168C99.5697 42.35 96.1679 34.1373 90.121 28.0812C84.0741 22.0252 75.8763 18.6207 67.327 18.615ZM67.327 73.9454C62.7875 73.9437 58.3504 72.5934 54.5766 70.0652C50.8029 67.5369 47.8619 63.9443 46.1255 59.7414C44.3891 55.5385 43.9352 50.9141 44.8212 46.4528C45.7073 41.9915 47.8934 37.8936 51.1033 34.6771C54.3133 31.4606 58.4028 29.27 62.855 28.3821C67.3072 27.4943 71.9222 27.9491 76.1165 29.6891C80.3107 31.429 83.896 34.376 86.4191 38.1575C88.9422 41.939 90.2898 46.3852 90.2915 50.934C90.2824 57.0326 87.8595 62.8786 83.5543 67.1894C79.2491 71.5002 73.4132 73.9237 67.327 73.9283V73.9454ZM67.327 18.615C60.9497 18.6167 54.7161 20.5134 49.4145 24.0651C44.1128 27.6168 39.9813 32.6641 37.5424 38.5687C35.1035 44.4733 34.4666 50.97 35.7125 57.2373C36.9583 63.5045 40.0308 69.2609 44.5414 73.7784C49.0521 78.2958 54.7983 81.3716 61.0534 82.6166C67.3085 83.8617 73.7916 83.2201 79.6829 80.773C85.5741 78.326 90.6089 74.1833 94.1506 68.8689C97.6922 63.5546 99.5816 57.3072 99.5799 50.9168C99.5697 42.35 96.1679 34.1373 90.121 28.0812C84.0741 22.0252 75.8763 18.6207 67.327 18.615ZM67.327 73.9454C62.7875 73.9437 58.3504 72.5934 54.5766 70.0652C50.8029 67.5369 47.8619 63.9443 46.1255 59.7414C44.3891 55.5385 43.9352 50.9141 44.8212 46.4528C45.7073 41.9915 47.8934 37.8936 51.1033 34.6771C54.3133 31.4606 58.4028 29.27 62.855 28.3821C67.3072 27.4943 71.9222 27.9491 76.1165 29.6891C80.3107 31.429 83.896 34.376 86.4191 38.1575C88.9422 41.939 90.2898 46.3852 90.2915 50.934C90.2824 57.0326 87.8595 62.8786 83.5543 67.1894C79.2491 71.5002 73.4132 73.9237 67.327 73.9283V73.9454ZM67.327 18.615C60.9497 18.6167 54.7161 20.5134 49.4145 24.0651C44.1128 27.6168 39.9813 32.6641 37.5424 38.5687C35.1035 44.4733 34.4666 50.97 35.7125 57.2373C36.9583 63.5045 40.0308 69.2609 44.5414 73.7784C49.0521 78.2958 54.7983 81.3716 61.0534 82.6166C67.3085 83.8617 73.7916 83.2201 79.6829 80.773C85.5741 78.326 90.6089 74.1833 94.1506 68.8689C97.6922 63.5546 99.5816 57.3072 99.5799 50.9168C99.5697 42.35 96.1679 34.1373 90.121 28.0812C84.0741 22.0252 75.8763 18.6207 67.327 18.615ZM67.327 73.9454C62.7875 73.9437 58.3504 72.5934 54.5766 70.0652C50.8029 67.5369 47.8619 63.9443 46.1255 59.7414C44.3891 55.5385 43.9352 50.9141 44.8212 46.4528C45.7073 41.9915 47.8934 37.8936 51.1033 34.6771C54.3133 31.4606 58.4028 29.27 62.855 28.3821C67.3072 27.4943 71.9222 27.9491 76.1165 29.6891C80.3107 31.429 83.896 34.376 86.4191 38.1575C88.9422 41.939 90.2898 46.3852 90.2915 50.934C90.2824 57.0326 87.8595 62.8786 83.5543 67.1894C79.2491 71.5002 73.4132 73.9237 67.327 73.9283V73.9454ZM67.327 7.22722e-07C57.2748 -0.0016959 47.4478 2.9838 39.089 8.5789C30.7301 14.174 24.2149 22.1274 20.3673 31.4331C16.5197 40.7389 15.5125 50.979 17.4732 60.8584C19.4339 70.7377 24.2743 79.8125 31.3823 86.9351C38.4903 94.0577 47.5466 98.908 57.4058 100.873C67.265 102.837 77.4842 101.828 86.7709 97.9727C96.0577 94.1172 103.995 87.5886 109.578 79.2127C115.162 70.8367 118.142 60.9896 118.14 50.9168C118.14 44.2302 116.826 37.6089 114.273 31.4311C111.72 25.2534 107.977 19.6401 103.258 14.9119C98.5398 10.1838 92.9381 6.43328 86.7729 3.87467C80.6078 1.31606 74 -0.000562625 67.327 7.22722e-07ZM67.327 92.5433C59.116 92.539 51.0907 90.0954 44.2656 85.5212C37.4404 80.947 32.1221 74.4477 28.9828 66.845C25.8435 59.2423 25.0243 50.8776 26.6288 42.8084C28.2333 34.7392 32.1894 27.3279 37.9969 21.5115C43.8044 15.6951 51.2026 11.7347 59.2561 10.1311C67.3096 8.52752 75.6568 9.35269 83.2424 12.5023C90.8279 15.6519 97.3112 20.9845 101.873 27.826C106.434 34.6674 108.868 42.7105 108.868 50.9383C108.855 61.9721 104.473 72.5499 96.6849 80.35C88.8967 88.1501 78.3384 92.5353 67.327 92.5433ZM67.327 18.615C60.9497 18.6167 54.7161 20.5134 49.4145 24.0651C44.1128 27.6168 39.9813 32.6641 37.5424 38.5687C35.1035 44.4733 34.4666 50.97 35.7125 57.2373C36.9583 63.5045 40.0308 69.2609 44.5414 73.7784C49.0521 78.2958 54.7983 81.3716 61.0534 82.6166C67.3085 83.8617 73.7916 83.2201 79.6829 80.773C85.5741 78.326 90.6089 74.1833 94.1506 68.8689C97.6922 63.5546 99.5816 57.3072 99.5799 50.9168C99.5697 42.35 96.1679 34.1373 90.121 28.0812C84.0741 22.0252 75.8763 18.6207 67.327 18.615ZM67.327 73.9454C62.7875 73.9437 58.3504 72.5934 54.5766 70.0652C50.8029 67.5369 47.8619 63.9443 46.1255 59.7414C44.3891 55.5385 43.9352 50.9141 44.8212 46.4528C45.7073 41.9915 47.8934 37.8936 51.1033 34.6771C54.3133 31.4606 58.4028 29.27 62.855 28.3821C67.3072 27.4943 71.9222 27.9491 76.1165 29.6891C80.3107 31.429 83.896 34.376 86.4191 38.1575C88.9422 41.939 90.2898 46.3852 90.2915 50.934C90.2824 57.0326 87.8595 62.8786 83.5543 67.1894C79.2491 71.5002 73.4132 73.9237 67.327 73.9283V73.9454ZM67.327 18.615C60.9497 18.6167 54.7161 20.5134 49.4145 24.0651C44.1128 27.6168 39.9813 32.6641 37.5424 38.5687C35.1035 44.4733 34.4666 50.97 35.7125 57.2373C36.9583 63.5045 40.0308 69.2609 44.5414 73.7784C49.0521 78.2958 54.7983 81.3716 61.0534 82.6166C67.3085 83.8617 73.7916 83.2201 79.6829 80.773C85.5741 78.326 90.6089 74.1833 94.1506 68.8689C97.6922 63.5546 99.5816 57.3072 99.5799 50.9168C99.5697 42.35 96.1679 34.1373 90.121 28.0812C84.0741 22.0252 75.8763 18.6207 67.327 18.615ZM67.327 73.9454C62.7875 73.9437 58.3504 72.5934 54.5766 70.0652C50.8029 67.5369 47.8619 63.9443 46.1255 59.7414C44.3891 55.5385 43.9352 50.9141 44.8212 46.4528C45.7073 41.9915 47.8934 37.8936 51.1033 34.6771C54.3133 31.4606 58.4028 29.27 62.855 28.3821C67.3072 27.4943 71.9222 27.9491 76.1165 29.6891C80.3107 31.429 83.896 34.376 86.4191 38.1575C88.9422 41.939 90.2898 46.3852 90.2915 50.934C90.2824 57.0326 87.8595 62.8786 83.5543 67.1894C79.2491 71.5002 73.4132 73.9237 67.327 73.9283V73.9454ZM67.327 18.615C60.9497 18.6167 54.7161 20.5134 49.4145 24.0651C44.1128 27.6168 39.9813 32.6641 37.5424 38.5687C35.1035 44.4733 34.4666 50.97 35.7125 57.2373C36.9583 63.5045 40.0308 69.2609 44.5414 73.7784C49.0521 78.2958 54.7983 81.3716 61.0534 82.6166C67.3085 83.8617 73.7916 83.2201 79.6829 80.773C85.5741 78.326 90.6089 74.1833 94.1506 68.8689C97.6922 63.5546 99.5816 57.3072 99.5799 50.9168C99.5697 42.35 96.1679 34.1373 90.121 28.0812C84.0741 22.0252 75.8763 18.6207 67.327 18.615ZM67.327 73.9454C62.7875 73.9437 58.3504 72.5934 54.5766 70.0652C50.8029 67.5369 47.8619 63.9443 46.1255 59.7414C44.3891 55.5385 43.9352 50.9141 44.8212 46.4528C45.7073 41.9915 47.8934 37.8936 51.1033 34.6771C54.3133 31.4606 58.4028 29.27 62.855 28.3821C67.3072 27.4943 71.9222 27.9491 76.1165 29.6891C80.3107 31.429 83.896 34.376 86.4191 38.1575C88.9422 41.939 90.2898 46.3852 90.2915 50.934C90.2824 57.0326 87.8595 62.8786 83.5543 67.1894C79.2491 71.5002 73.4132 73.9237 67.327 73.9283V73.9454Z" fill="#FFC200"/>
<path d="M67.3263 9.30762C59.1153 9.31186 51.0899 11.7556 44.2648 16.3297C37.4397 20.9039 32.1213 27.4032 28.982 35.0059C25.8428 42.6086 25.0236 50.9733 26.6281 59.0425C28.2325 67.1117 32.1886 74.523 37.9962 80.3394C43.8037 86.1558 51.2019 90.1162 59.2554 91.7198C67.3089 93.3234 75.6561 92.4982 83.2416 89.3486C90.8272 86.199 97.3105 80.8664 101.872 74.0249C106.433 67.1835 108.868 59.1404 108.868 50.9126C108.855 39.8784 104.474 29.3 96.6854 21.4997C88.897 13.6993 78.338 9.31443 67.3263 9.30762ZM67.3263 83.2359C60.9497 83.2342 54.7167 81.338 49.4155 77.787C44.1142 74.2361 39.9827 69.1898 37.5433 63.2862C35.1039 57.3826 34.466 50.8868 35.7105 44.62C36.9549 38.3532 40.0257 32.5968 44.5346 28.0786C49.0436 23.5605 54.7882 20.4834 61.0422 19.2364C67.2962 17.9894 73.7787 18.6285 79.6703 21.073C85.5618 23.5174 90.5978 27.6574 94.1415 32.9695C97.6852 38.2816 99.5775 44.5273 99.5792 50.9169C99.5713 59.486 96.1707 67.7018 90.1238 73.7611C84.0769 79.8204 75.8778 83.2279 67.3263 83.2359Z" fill="white"/>
<path d="M80.9856 50.9163C80.9856 53.6232 80.1845 56.2694 78.6837 58.5202C77.1828 60.771 75.0496 62.5253 72.5538 63.5612C70.058 64.5971 67.3116 64.8681 64.6621 64.34C62.0125 63.8119 59.5788 62.5084 57.6685 60.5943C55.7583 58.6801 54.4575 56.2414 53.9304 53.5864C53.4034 50.9314 53.6739 48.1795 54.7077 45.6786C55.7415 43.1776 57.4922 41.04 59.7384 39.5361C61.9845 38.0322 64.6253 37.2295 67.3268 37.2295C70.9462 37.2397 74.4145 38.6849 76.9738 41.2495C79.5331 43.8141 80.9754 47.2894 80.9856 50.9163Z" fill="url(#paint0_linear)"/>
<path d="M67.3266 18.6147C60.9493 18.6164 54.7157 20.5131 49.4141 24.0648C44.1125 27.6165 39.981 32.6638 37.542 38.5684C35.1031 44.473 34.4663 50.9697 35.7121 57.237C36.9579 63.5043 40.0304 69.2606 44.541 73.7781C49.0517 78.2956 54.7979 81.3713 61.053 82.6164C67.3082 83.8614 73.7913 83.2198 79.6825 80.7728C85.5737 78.3257 90.6085 74.183 94.1502 68.8687C97.6918 63.5543 99.5813 57.3069 99.5796 50.9166C99.5694 42.3497 96.1675 34.137 90.1206 28.081C84.0737 22.0249 75.8759 18.6204 67.3266 18.6147ZM67.3266 73.9452C62.7871 73.9435 58.35 72.5931 54.5763 70.0649C50.8025 67.5367 47.8615 63.944 46.1251 59.7411C44.3887 55.5383 43.9348 50.9139 44.8208 46.4526C45.7069 41.9912 47.893 37.8933 51.103 34.6768C54.3129 31.4603 58.4024 29.2697 62.8546 28.3818C67.3068 27.494 71.9218 27.9488 76.1161 29.6888C80.3104 31.4287 83.8957 34.3757 86.4187 38.1572C88.9418 41.9387 90.2894 46.3849 90.2911 50.9337C90.282 57.0324 87.8591 62.8784 83.5539 67.1892C79.2487 71.4999 73.4128 73.9235 67.3266 73.928V73.9452Z" fill="url(#paint1_linear)"/>
<path d="M80.9856 50.9163C80.9856 53.6232 80.1845 56.2694 78.6837 58.5202C77.1828 60.771 75.0496 62.5253 72.5538 63.5612C70.058 64.5971 67.3116 64.8681 64.6621 64.34C62.0125 63.8119 59.5788 62.5084 57.6685 60.5943C55.7583 58.6801 54.4575 56.2414 53.9304 53.5864C53.4034 50.9314 53.6739 48.1795 54.7077 45.6786C55.7415 43.1776 57.4922 41.04 59.7384 39.5361C61.9845 38.0322 64.6253 37.2295 67.3268 37.2295C70.9462 37.2397 74.4145 38.6849 76.9738 41.2495C79.5331 43.8141 80.9754 47.2894 80.9856 50.9163Z" fill="url(#paint2_linear)"/>
<path d="M67.3266 18.6147C60.9493 18.6164 54.7157 20.5131 49.4141 24.0648C44.1125 27.6165 39.981 32.6638 37.542 38.5684C35.1031 44.473 34.4663 50.9697 35.7121 57.237C36.9579 63.5043 40.0304 69.2606 44.541 73.7781C49.0517 78.2956 54.7979 81.3713 61.053 82.6164C67.3082 83.8614 73.7913 83.2198 79.6825 80.7728C85.5737 78.3257 90.6085 74.183 94.1502 68.8687C97.6918 63.5543 99.5813 57.3069 99.5796 50.9166C99.5694 42.3497 96.1675 34.137 90.1206 28.081C84.0737 22.0249 75.8759 18.6204 67.3266 18.6147ZM67.3266 73.9452C62.7871 73.9435 58.35 72.5931 54.5763 70.0649C50.8025 67.5367 47.8615 63.944 46.1251 59.7411C44.3887 55.5383 43.9348 50.9139 44.8208 46.4526C45.7069 41.9912 47.893 37.8933 51.103 34.6768C54.3129 31.4603 58.4024 29.2697 62.8546 28.3818C67.3068 27.494 71.9218 27.9488 76.1161 29.6888C80.3104 31.4287 83.8957 34.3757 86.4187 38.1572C88.9418 41.9387 90.2894 46.3849 90.2911 50.9337C90.282 57.0324 87.8591 62.8784 83.5539 67.1892C79.2487 71.4999 73.4128 73.9235 67.3266 73.928V73.9452Z" fill="#FFC200"/>
<path d="M67.3267 27.9224C62.7865 27.9241 58.3487 29.2748 54.5746 31.8038C50.8004 34.3328 47.8595 37.9265 46.1235 42.1303C44.3876 46.3342 43.9347 50.9595 44.8222 55.4213C45.7096 59.8831 47.8974 63.981 51.1091 67.1968C54.3207 70.4126 58.4119 72.6019 62.8652 73.4878C67.3185 74.3737 71.934 73.9164 76.128 72.1738C80.322 70.4312 83.9061 67.4815 86.4271 63.6978C88.9481 59.9141 90.2928 55.4662 90.2911 50.9166C90.2832 44.8177 87.8606 38.971 83.5552 34.66C79.2498 30.3489 73.4132 27.9258 67.3267 27.9224ZM67.3267 64.6206C64.6236 64.6223 61.9806 63.8207 59.7321 62.3173C57.4836 60.8138 55.7304 58.676 54.6944 56.1741C53.6584 53.6723 53.386 50.9188 53.9117 48.2618C54.4374 45.6048 55.7376 43.1638 57.6478 41.2472C59.558 39.3307 61.9925 38.0248 64.6434 37.4947C67.2943 36.9646 70.0425 37.2341 72.5405 38.2691C75.0385 39.3041 77.1742 41.0581 78.6774 43.3094C80.1806 45.5606 80.9838 48.208 80.9855 50.9166C80.9799 54.5464 79.5395 58.0262 76.9797 60.5945C74.4199 63.1627 70.9491 64.6104 67.3267 64.6206Z" fill="white"/>
<path d="M80.9856 50.9163C80.9856 53.6232 80.1845 56.2694 78.6837 58.5202C77.1828 60.771 75.0496 62.5253 72.5538 63.5612C70.058 64.5971 67.3116 64.8681 64.6621 64.34C62.0125 63.8119 59.5788 62.5084 57.6685 60.5943C55.7583 58.6801 54.4575 56.2414 53.9304 53.5864C53.4034 50.9314 53.6739 48.1795 54.7077 45.6786C55.7415 43.1776 57.4922 41.04 59.7384 39.5361C61.9845 38.0322 64.6253 37.2295 67.3268 37.2295C70.9462 37.2397 74.4145 38.6849 76.9738 41.2495C79.5331 43.8141 80.9754 47.2894 80.9856 50.9163Z" fill="url(#paint3_linear)"/>
<path d="M80.9856 50.9163C80.9856 53.6232 80.1845 56.2694 78.6837 58.5202C77.1828 60.771 75.0496 62.5253 72.5538 63.5612C70.058 64.5971 67.3116 64.8681 64.6621 64.34C62.0125 63.8119 59.5788 62.5084 57.6685 60.5943C55.7583 58.6801 54.4575 56.2414 53.9304 53.5864C53.4034 50.9314 53.6739 48.1795 54.7077 45.6786C55.7415 43.1776 57.4922 41.04 59.7384 39.5361C61.9845 38.0322 64.6253 37.2295 67.3268 37.2295C70.9462 37.2397 74.4145 38.6849 76.9738 41.2495C79.5331 43.8141 80.9754 47.2894 80.9856 50.9163Z" fill="#FFC200"/>
<path d="M40.1039 81.5973C39.6258 81.5972 39.1585 81.4552 38.7609 81.1892C38.3634 80.9232 38.0534 80.5451 37.8702 80.1026C37.687 79.6602 37.6388 79.1733 37.7316 78.7034C37.8244 78.2335 38.0541 77.8017 38.3917 77.4625L65.6237 50.1833C65.8485 49.958 66.1155 49.7793 66.4092 49.6573C66.703 49.5354 67.0179 49.4727 67.3359 49.4727C67.6538 49.4727 67.9687 49.5354 68.2625 49.6573C68.5562 49.7793 68.8232 49.958 69.048 50.1833C69.2729 50.4086 69.4512 50.6761 69.5729 50.9705C69.6946 51.2648 69.7572 51.5804 69.7572 51.899C69.7572 52.2176 69.6946 52.5331 69.5729 52.8275C69.4512 53.1219 69.2729 53.3893 69.048 53.6147L41.816 80.8895C41.5912 81.1146 41.3242 81.293 41.0304 81.4145C40.7365 81.5359 40.4217 81.598 40.1039 81.5973Z" fill="#FFD95F"/>
<path d="M42.3091 78.3375L38.4096 94.1431L26.4416 106.131V92.8692L13.2065 92.8649L25.1703 80.8767L40.9393 76.9692L42.3091 78.3375Z" fill="#FFD95F"/>
</g>
<defs>
<linearGradient id="paint0_linear" x1="55.4957" y1="44.0793" x2="79.1777" y2="57.7241" gradientUnits="userSpaceOnUse">
<stop stop-color="#FBA5E2"/>
<stop offset="1" stop-color="#FE61CA"/>
</linearGradient>
<linearGradient id="paint1_linear" x1="5973.21" y1="5257.42" x2="14394.4" y2="10109.7" gradientUnits="userSpaceOnUse">
<stop stop-color="#FBA5E2"/>
<stop offset="1" stop-color="#FE61CA"/>
</linearGradient>
<linearGradient id="paint2_linear" x1="55.4957" y1="44.0793" x2="79.1777" y2="57.7241" gradientUnits="userSpaceOnUse">
<stop stop-color="#FBA5E2"/>
<stop offset="1" stop-color="#FE61CA"/>
</linearGradient>
<linearGradient id="paint3_linear" x1="55.4957" y1="44.0793" x2="79.1777" y2="57.7241" gradientUnits="userSpaceOnUse">
<stop stop-color="#FBA5E2"/>
<stop offset="1" stop-color="#FE61CA"/>
</linearGradient>
<clipPath id="clip0">
<rect width="135" height="138" fill="white"/>
</clipPath>
</defs>
</svg>
